# xmcd
#
# Track frame offsets:
#	150
#	33525
#	51825
#	66520
#	82197
#	100422
#	117442
#	131320
#	155392
#	174517
#	192065
#	205717
#	232937
#	235342
#	237657
#	239960
#	242310
#	244665
#	246950
#	249235
#	251507
#	253790
#	263240
#	267887
#	271327
#
# Disc length: 3669 seconds
#
# Revision: 0
# Processed by: cddbd v1.5PL3 Copyright (c) Steve Scherf et al.
# Submitted via: dBpowerAMP V4.0
#
DISCID=670e5319
DTITLE=Vittorio Matteucci and US Band - Heart of Rhythm'n'Blues
DYEAR=1900
DGENRE=
TTITLE0=01 Vittorio Matteucci - Soul man_Hold on I'mcoming_Living in America
TTITLE1=02 Vittorio Matteucci - I wish
TTITLE2=03 Vittorio Matteucci - Think
TTITLE3=04 Vittorio Matteucci - Papa's got a brand new bag
TTITLE4=05 Vittorio Matteucci - A natural woman
TTITLE5=06 Vittorio Matteucci - Kiss
TTITLE6=07 Vittorio Matteucci - Respect
TTITLE7=08 Vittorio Matteucci - Satisfaction_I got you
TTITLE8=09 Vittorio Matteucci - Knock on wood
TTITLE9=10 Vittorio Matteucci - When a man loves a woman
TTITLE10=11 Vittorio Matteucci - Shake a tail feather
TTITLE11=12 Vittorio Matteucci - So sad
TTITLE12=13 Traccia Tecnica
TTITLE13=14 Traccia Tecnica
TTITLE14=15 Traccia Tecnica
TTITLE15=16 Traccia Tecnica
TTITLE16=17 Traccia Tecnica
TTITLE17=18 Traccia Tecnica
TTITLE18=19 Traccia Tecnica
TTITLE19=20 Traccia Tecnica
TTITLE20=21 Traccia Tecnica
TTITLE21=22 Traccia Tecnica
TTITLE22=23 Traccia Tecnica
TTITLE23=24 Traccia Tecnica
TTITLE24=25 Traccia Tecnica
EXTD=
EXTT0=
EXTT1=
EXTT2=
EXTT3=
EXTT4=
EXTT5=
EXTT6=
EXTT7=
EXTT8=
EXTT9=
EXTT10=
EXTT11=
EXTT12=
EXTT13=
EXTT14=
EXTT15=
EXTT16=
EXTT17=
EXTT18=
EXTT19=
EXTT20=
EXTT21=
EXTT22=
EXTT23=
EXTT24=
PLAYORDER=
